<svg width="16" height="22" viewBox="0 0 16 22" fill="none" xmlns="http://www.w3.org/2000/svg">
<path d="M3.5 0.5H12.5C13.2956 0.5 14.0587 0.816071 14.6213 1.37868C15.1839 1.94129 15.5 2.70435 15.5 3.5V17.7455C15.5 17.9444 15.421 18.1352 15.2803 18.2758C15.1397 18.4165 14.9489 18.4955 14.75 18.4955H2V18.5C2 18.8978 2.15804 19.2794 2.43934 19.5607C2.72064 19.842 3.10218 20 3.5 20H14.75C14.9489 20 15.1397 20.079 15.2803 20.2197C15.421 20.3603 15.5 20.5511 15.5 20.75C15.5 20.9489 15.421 21.1397 15.2803 21.2803C15.1397 21.421 14.9489 21.5 14.75 21.5H3.5C2.70435 21.5 1.94129 21.1839 1.37868 20.6213C0.81607 20.0587 0.5 19.2956 0.5 18.5V3.5C0.5 2.70435 0.81607 1.94129 1.37868 1.37868C1.94129 0.816071 2.70435 0.5 3.5 0.5ZM5 7.994H5.9015L5.57 9.5H4.25C4.05109 9.5 3.86032 9.57902 3.71967 9.71967C3.57902 9.86032 3.5 10.0511 3.5 10.25C3.5 10.4489 3.57902 10.6397 3.71967 10.7803C3.86032 10.921 4.05109 11 4.25 11H5.237L5.024 11.9585C4.98103 12.1528 5.01703 12.3563 5.12407 12.5241C5.2311 12.6919 5.40041 12.8103 5.59475 12.8533C5.78909 12.8962 5.99253 12.8602 6.16033 12.7532C6.32813 12.6461 6.44653 12.4768 6.4895 12.2825L6.773 11H8.2265L8.012 11.957C7.99053 12.0531 7.9882 12.1525 8.00515 12.2496C8.0221 12.3466 8.058 12.4393 8.11079 12.5225C8.16358 12.6056 8.23223 12.6776 8.31282 12.7342C8.39342 12.7908 8.48437 12.831 8.5805 12.8525C8.67663 12.874 8.77604 12.8763 8.87307 12.8593C8.9701 12.8424 9.06284 12.8065 9.14599 12.7537C9.22914 12.7009 9.30109 12.6323 9.35771 12.5517C9.41433 12.4711 9.45453 12.3801 9.476 12.284L9.7625 11H11C11.1989 11 11.3897 10.921 11.5303 10.7803C11.671 10.6397 11.75 10.4489 11.75 10.25C11.75 10.0511 11.671 9.86032 11.5303 9.71967C11.3897 9.57902 11.1989 9.5 11 9.5H10.097L10.4345 7.994H11.75C11.9489 7.994 12.1397 7.91498 12.2803 7.77433C12.421 7.63368 12.5 7.44291 12.5 7.244C12.5 7.04509 12.421 6.85432 12.2803 6.71367C12.1397 6.57302 11.9489 6.494 11.75 6.494H10.769L10.9805 5.543C11.002 5.44687 11.0043 5.34746 10.9873 5.25043C10.9704 5.1534 10.9345 5.06066 10.8817 4.97751C10.8289 4.89435 10.7603 4.82241 10.6797 4.76579C10.5991 4.70917 10.5081 4.66897 10.412 4.6475C10.3159 4.62603 10.2165 4.6237 10.1194 4.64065C10.0224 4.6576 9.92966 4.6935 9.84651 4.74629C9.67857 4.8529 9.55986 5.02186 9.5165 5.216L9.2315 6.494H7.7705L7.9805 5.5415C8.0174 5.3497 7.97803 5.15108 7.87076 4.98786C7.76348 4.82465 7.59677 4.70972 7.40607 4.66751C7.21537 4.62531 7.01573 4.65916 6.84961 4.76187C6.68348 4.86458 6.56397 5.02804 6.5165 5.2175L6.2345 6.4925H5C4.80109 6.4925 4.61032 6.57152 4.46967 6.71217C4.32902 6.85282 4.25 7.04359 4.25 7.2425C4.25 7.44141 4.32902 7.63218 4.46967 7.77283C4.61032 7.91348 4.80109 7.994 5 7.994ZM7.1045 9.5H8.5595L8.897 7.994H7.439L7.1045 9.5Z"/>
</svg>
