<svg width="37" height="37" viewBox="0 0 37 37" fill="none" xmlns="http://www.w3.org/2000/svg">
<g clip-path="url(#clip0_2157_1092)">
<path d="M33.8425 0.5H3.1575C2.45269 0.5 1.77674 0.779986 1.27836 1.27836C0.779986 1.77674 0.5 2.45269 0.5 3.1575V33.8425C0.5 34.5473 0.779986 35.2233 1.27836 35.7216C1.77674 36.22 2.45269 36.5 3.1575 36.5H33.8425C34.5473 36.5 35.2233 36.22 35.7216 35.7216C36.22 35.2233 36.5 34.5473 36.5 33.8425V3.1575C36.5 2.45269 36.22 1.77674 35.7216 1.27836C35.2233 0.779986 34.5473 0.5 33.8425 0.5ZM11.23 31.1675H5.8175V13.975H11.23V31.1675ZM8.52 11.5925C7.90605 11.589 7.30687 11.4038 6.7981 11.0601C6.28933 10.7165 5.89376 10.2298 5.66132 9.66153C5.42887 9.09327 5.36997 8.46889 5.49205 7.86718C5.61412 7.26548 5.9117 6.71341 6.34723 6.28067C6.78276 5.84793 7.33672 5.5539 7.9392 5.43569C8.54168 5.31748 9.16567 5.38039 9.73243 5.61648C10.2992 5.85257 10.7833 6.25125 11.1237 6.76222C11.4641 7.27319 11.6455 7.87354 11.645 8.4875C11.6508 8.89855 11.5738 9.30656 11.4185 9.68721C11.2633 10.0679 11.033 10.4134 10.7414 10.7031C10.4497 10.9929 10.1028 11.2209 9.72114 11.3737C9.3395 11.5265 8.931 11.6009 8.52 11.5925ZM31.18 31.1825H25.77V21.79C25.77 19.02 24.5925 18.165 23.0725 18.165C21.4675 18.165 19.8925 19.375 19.8925 21.86V31.1825H14.48V13.9875H19.685V16.37H19.755C20.2775 15.3125 22.1075 13.505 24.9 13.505C27.92 13.505 31.1825 15.2975 31.1825 20.5475L31.18 31.1825Z" fill="#0A66C2"/>
</g>
<defs>
<clipPath id="clip0_2157_1092">
<rect width="36" height="36" fill="white" transform="translate(0.5 0.5)"/>
</clipPath>
</defs>
</svg>
