<svg width="31" height="21" viewBox="0 0 31 21" fill="none" xmlns="http://www.w3.org/2000/svg">
<path d="M23.0889 20.2517C21.7845 20.2517 20.6268 19.9093 19.6158 19.2245C18.6048 18.5396 17.8059 17.6102 17.2189 16.4362C16.6318 15.2622 16.3383 13.9577 16.3383 12.5228C16.3383 10.1748 17.1047 7.87567 18.6375 5.62548C20.2028 3.34268 22.4041 1.46752 25.2413 0L30.72 2.93504C28.8611 3.84816 27.2795 4.90803 25.975 6.11465C24.7032 7.32128 23.839 8.73987 23.3824 10.3704C24.9152 10.5009 26.1544 10.9738 27.1001 11.789C28.0785 12.5717 28.5676 13.6642 28.5676 15.0665C28.5676 16.4688 28.0622 17.6917 27.0512 18.7353C26.0729 19.7462 24.7521 20.2517 23.0889 20.2517ZM6.75057 20.2517C5.44612 20.2517 4.28841 19.9093 3.27745 19.2245C2.2665 18.5396 1.46752 17.6102 0.88051 16.4362C0.293503 15.2622 0 13.9577 0 12.5228C0 10.1748 0.766369 7.87567 2.29911 5.62548C3.86446 3.34268 6.06573 1.46752 8.90293 0L14.3817 2.93504C12.5228 3.84816 10.9411 4.90803 9.63669 6.11465C8.36484 7.32128 7.50064 8.73987 7.04408 10.3704C8.57682 10.5009 9.81605 10.9738 10.7618 11.789C11.7401 12.5717 12.2293 13.6642 12.2293 15.0665C12.2293 16.4688 11.7238 17.6917 10.7129 18.7353C9.73452 19.7462 8.41376 20.2517 6.75057 20.2517Z" fill="url(#paint0_linear_3_806)" fill-opacity="0.45"/>
<defs>
<linearGradient id="paint0_linear_3_806" x1="-2.65117" y1="0.00966283" x2="10.2796" y2="24.7114" gradientUnits="userSpaceOnUse">
<stop stop-color="#FF7E00"/>
<stop offset="1" stop-color="#FF78D7"/>
</linearGradient>
</defs>
</svg>
